<svg width="235" height="77" viewBox="0 0 235 77" fill="none" xmlns="http://www.w3.org/2000/svg">
<g filter="url(#filter0_d_2_260)">
<g filter="url(#filter1_d_2_260)">
<path d="M10 22.2357C10 20.9603 10.4873 19.7332 11.3623 18.8053L21.9573 7.5697C22.902 6.56788 24.218 6 25.595 6H36.875H63.75H117.5H220C222.761 6 225 8.23858 225 11V34.5V46.7643C225 48.0397 224.513 49.2668 223.638 50.1947L213.043 61.4303C212.098 62.4321 210.782 63 209.405 63H198.125H171.25H117.5H15C12.2386 63 10 60.7614 10 58V34.5V22.2357Z" fill="url(#paint0_linear_2_260)"/>
</g>
<path d="M41.8886 33.5227C41.8886 34.1573 41.9633 34.7298 42.1126 35.24C42.2744 35.7502 42.4984 36.192 42.7846 36.5653C43.0833 36.9262 43.4442 37.2062 43.8673 37.4053C44.2904 37.6044 44.7757 37.704 45.3233 37.704C45.8584 37.704 46.3375 37.6044 46.7606 37.4053C47.1962 37.2062 47.5571 36.9262 47.8433 36.5653C48.142 36.192 48.366 35.7502 48.5153 35.24C48.6771 34.7298 48.758 34.1573 48.758 33.5227C48.758 32.888 48.6771 32.3156 48.5153 31.8053C48.366 31.2827 48.142 30.8409 47.8433 30.48C47.5571 30.1067 47.1962 29.8204 46.7606 29.6213C46.3375 29.4222 45.8584 29.3227 45.3233 29.3227C44.7757 29.3227 44.2904 29.4284 43.8673 29.64C43.4442 29.8391 43.0833 30.1253 42.7846 30.4987C42.4984 30.8596 42.2744 31.3013 42.1126 31.824C41.9633 32.3342 41.8886 32.9004 41.8886 33.5227ZM51.7633 33.5227C51.7633 34.6302 51.5953 35.6071 51.2593 36.4533C50.9357 37.2871 50.4877 37.9902 49.9153 38.5627C49.3428 39.1227 48.6584 39.5458 47.862 39.832C47.078 40.1182 46.2317 40.2613 45.3233 40.2613C44.4397 40.2613 43.606 40.1182 42.822 39.832C42.038 39.5458 41.3535 39.1227 40.7686 38.5627C40.1837 37.9902 39.7233 37.2871 39.3873 36.4533C39.0513 35.6071 38.8833 34.6302 38.8833 33.5227C38.8833 32.4151 39.0575 31.4444 39.406 30.6107C39.7544 29.7644 40.2211 29.0551 40.806 28.4827C41.4033 27.9102 42.0877 27.4809 42.8593 27.1947C43.6433 26.9084 44.4646 26.7653 45.3233 26.7653C46.2068 26.7653 47.0406 26.9084 47.8246 27.1947C48.6086 27.4809 49.2931 27.9102 49.878 28.4827C50.4628 29.0551 50.9233 29.7644 51.2593 30.6107C51.5953 31.4444 51.7633 32.4151 51.7633 33.5227ZM53.5373 35.0907C53.5373 34.3813 53.6493 33.7156 53.8733 33.0933C54.1098 32.4587 54.4458 31.9111 54.8813 31.4507C55.3169 30.9778 55.8458 30.6044 56.468 30.3307C57.0902 30.0569 57.7996 29.92 58.596 29.92C59.1187 29.92 59.5978 29.9698 60.0333 30.0693C60.4689 30.1564 60.892 30.2871 61.3027 30.4613L60.724 32.6827C60.4627 32.5831 60.1765 32.496 59.8653 32.4213C59.5542 32.3467 59.2058 32.3093 58.82 32.3093C57.9987 32.3093 57.3827 32.5644 56.972 33.0747C56.5738 33.5849 56.3747 34.2569 56.3747 35.0907C56.3747 35.9742 56.5613 36.6587 56.9347 37.144C57.3205 37.6293 57.9862 37.872 58.932 37.872C59.268 37.872 59.6289 37.8409 60.0147 37.7787C60.4005 37.7164 60.7551 37.6169 61.0787 37.48L61.4707 39.7573C61.1471 39.8942 60.7427 40.0124 60.2573 40.112C59.772 40.2116 59.2369 40.2613 58.652 40.2613C57.756 40.2613 56.9845 40.1307 56.3373 39.8693C55.6902 39.5956 55.1551 39.2284 54.732 38.768C54.3213 38.3076 54.0165 37.7662 53.8173 37.144C53.6307 36.5093 53.5373 35.8249 53.5373 35.0907ZM71.4573 32.4587H68.3213V40H65.54V32.4587H62.404V30.1813H71.4573V32.4587ZM76.8966 38.0587C77.1704 38.0587 77.4318 38.0524 77.6806 38.04C77.9295 38.0276 78.1286 38.0089 78.278 37.984V35.8747C78.166 35.8498 77.998 35.8249 77.774 35.8C77.55 35.7751 77.3446 35.7627 77.158 35.7627C76.8966 35.7627 76.6478 35.7813 76.4113 35.8187C76.1873 35.8436 75.9882 35.8996 75.814 35.9867C75.6398 36.0738 75.5029 36.192 75.4033 36.3413C75.3038 36.4907 75.254 36.6773 75.254 36.9013C75.254 37.3369 75.3971 37.6418 75.6833 37.816C75.982 37.9778 76.3864 38.0587 76.8966 38.0587ZM76.6726 29.92C77.494 29.92 78.1784 30.0133 78.726 30.2C79.2735 30.3867 79.7091 30.6542 80.0326 31.0027C80.3686 31.3511 80.6051 31.7742 80.742 32.272C80.8789 32.7698 80.9473 33.3236 80.9473 33.9333V39.72C80.5491 39.8071 79.9953 39.9067 79.286 40.0187C78.5766 40.1431 77.718 40.2053 76.71 40.2053C76.0753 40.2053 75.4966 40.1493 74.974 40.0373C74.4638 39.9253 74.022 39.7449 73.6486 39.496C73.2753 39.2347 72.9891 38.8987 72.79 38.488C72.5909 38.0773 72.4913 37.5733 72.4913 36.976C72.4913 36.4036 72.6033 35.9182 72.8273 35.52C73.0638 35.1218 73.3749 34.8044 73.7606 34.568C74.1464 34.3316 74.5882 34.1636 75.086 34.064C75.5838 33.952 76.1002 33.896 76.6353 33.896C76.9962 33.896 77.3135 33.9147 77.5873 33.952C77.8735 33.9769 78.1038 34.0142 78.278 34.064V33.8027C78.278 33.3298 78.1349 32.9502 77.8486 32.664C77.5624 32.3778 77.0646 32.2347 76.3553 32.2347C75.8824 32.2347 75.4158 32.272 74.9553 32.3467C74.4949 32.4089 74.0966 32.5022 73.7606 32.6267L73.406 30.3867C73.5678 30.3369 73.7669 30.2871 74.0033 30.2373C74.2522 30.1751 74.5198 30.1253 74.806 30.088C75.0922 30.0382 75.3909 30.0009 75.702 29.976C76.0255 29.9387 76.3491 29.92 76.6726 29.92ZM86.2437 37.9467C86.4179 37.9716 86.6481 37.9964 86.9343 38.0213C87.233 38.0338 87.5068 38.04 87.7557 38.04C88.3779 38.04 88.8632 37.9653 89.2117 37.816C89.5601 37.6542 89.7343 37.368 89.7343 36.9573C89.7343 36.5591 89.5726 36.2853 89.249 36.136C88.9379 35.9742 88.4775 35.8933 87.8677 35.8933H86.2437V37.9467ZM87.8117 34.0267C88.2721 34.0267 88.6455 33.9707 88.9317 33.8587C89.2179 33.7342 89.361 33.4729 89.361 33.0747C89.361 32.7013 89.1992 32.4462 88.8757 32.3093C88.5521 32.1724 88.129 32.104 87.6063 32.104C87.4321 32.104 87.2019 32.1164 86.9157 32.1413C86.6419 32.1538 86.4179 32.1724 86.2437 32.1973V34.0267H87.8117ZM87.7183 40.1867C87.3699 40.1867 86.9966 40.1742 86.5983 40.1493C86.2001 40.1244 85.8081 40.0871 85.4223 40.0373C85.0366 40 84.6695 39.9564 84.321 39.9067C83.985 39.8444 83.6988 39.7884 83.4623 39.7387V30.3307C83.6988 30.2809 83.985 30.2373 84.321 30.2C84.6695 30.1502 85.0366 30.1067 85.4223 30.0693C85.8081 30.032 86.2001 30.0071 86.5983 29.9947C86.9966 29.9698 87.3699 29.9573 87.7183 29.9573C88.5272 29.9573 89.2055 30.0382 89.753 30.2C90.313 30.3618 90.761 30.5733 91.097 30.8347C91.4455 31.096 91.6943 31.3884 91.8437 31.712C91.993 32.0356 92.0677 32.3591 92.0677 32.6827C92.0677 33.1182 91.9619 33.5164 91.7503 33.8773C91.5388 34.2382 91.2712 34.4996 90.9477 34.6613C91.1219 34.736 91.2961 34.8418 91.4703 34.9787C91.657 35.1156 91.825 35.2836 91.9743 35.4827C92.1237 35.6693 92.2419 35.8996 92.329 36.1733C92.4286 36.4347 92.4783 36.7396 92.4783 37.088C92.4783 37.4862 92.3975 37.872 92.2357 38.2453C92.0863 38.6187 91.825 38.9484 91.4517 39.2347C91.0783 39.5209 90.5868 39.7511 89.977 39.9253C89.3672 40.0996 88.6143 40.1867 87.7183 40.1867ZM103.56 30.1813V40H100.76C100.76 39.3778 100.766 38.7618 100.779 38.152C100.791 37.5298 100.803 36.9573 100.816 36.4347C100.828 35.912 100.841 35.4578 100.853 35.072C100.878 34.6738 100.891 34.3813 100.891 34.1947C100.53 34.7049 100.169 35.2213 99.8079 35.744C99.447 36.2667 99.0986 36.7831 98.7626 37.2933C98.439 37.7911 98.1279 38.2702 97.8293 38.7307C97.543 39.1911 97.2879 39.6142 97.0639 40H94.6186V30.1813H97.3999C97.3999 30.8036 97.3937 31.4009 97.3813 31.9733C97.3813 32.5333 97.375 33.0436 97.3626 33.504C97.3502 33.9644 97.3377 34.3689 97.3253 34.7173C97.3128 35.0533 97.3066 35.3147 97.3066 35.5013C98.0533 34.4062 98.7377 33.4231 99.3599 32.552C99.9946 31.6809 100.611 30.8907 101.208 30.1813H103.56ZM114.296 32.4587H111.16V40H108.379V32.4587H105.243V30.1813H114.296V32.4587ZM120.146 38.0587C120.656 38.0587 121.054 37.9653 121.341 37.7787C121.639 37.5796 121.789 37.2622 121.789 36.8267C121.789 36.6027 121.739 36.416 121.639 36.2667C121.54 36.1049 121.403 35.9804 121.229 35.8933C121.054 35.7938 120.849 35.7253 120.613 35.688C120.389 35.6507 120.146 35.632 119.885 35.632C119.698 35.632 119.493 35.6444 119.269 35.6693C119.045 35.6942 118.877 35.7191 118.765 35.744V37.984C118.914 38.0089 119.113 38.0276 119.362 38.04C119.611 38.0524 119.872 38.0587 120.146 38.0587ZM118.765 33.672C118.939 33.6222 119.163 33.5849 119.437 33.56C119.723 33.5227 120.046 33.504 120.407 33.504C120.992 33.504 121.533 33.5724 122.031 33.7093C122.541 33.8462 122.983 34.0578 123.357 34.344C123.73 34.6178 124.022 34.9724 124.234 35.408C124.445 35.8311 124.551 36.3289 124.551 36.9013C124.551 37.4738 124.452 37.9716 124.253 38.3947C124.053 38.8053 123.767 39.1476 123.394 39.4213C123.021 39.6827 122.573 39.8756 122.05 40C121.54 40.1369 120.967 40.2053 120.333 40.2053C119.511 40.2053 118.758 40.1618 118.074 40.0747C117.389 40 116.693 39.8756 115.983 39.7013V30.1813H118.765V33.672ZM130.537 30.4987C130.973 30.3369 131.477 30.2062 132.049 30.1067C132.622 30.0071 133.244 29.9573 133.916 29.9573C134.426 29.9573 134.924 30.0071 135.409 30.1067C135.895 30.1938 136.324 30.3493 136.697 30.5733C137.083 30.7849 137.388 31.0711 137.612 31.432C137.848 31.7804 137.967 32.2222 137.967 32.7573C137.967 33.2427 137.855 33.6596 137.631 34.008C137.407 34.344 137.089 34.624 136.679 34.848C137.226 35.0844 137.631 35.3956 137.892 35.7813C138.153 36.1671 138.284 36.6587 138.284 37.256C138.284 37.816 138.166 38.2889 137.929 38.6747C137.693 39.048 137.376 39.3529 136.977 39.5893C136.579 39.8258 136.125 39.9938 135.615 40.0933C135.104 40.2053 134.576 40.2613 134.028 40.2613C133.704 40.2613 133.368 40.2427 133.02 40.2053C132.672 40.1804 132.329 40.1369 131.993 40.0747C131.67 40.0249 131.359 39.9564 131.06 39.8693C130.761 39.7822 130.494 39.6889 130.257 39.5893L130.761 37.424C131.023 37.5236 131.421 37.6418 131.956 37.7787C132.504 37.9156 133.12 37.984 133.804 37.984C134.924 37.984 135.484 37.6729 135.484 37.0507C135.484 36.8391 135.44 36.6711 135.353 36.5467C135.266 36.4098 135.148 36.304 134.999 36.2293C134.862 36.1547 134.7 36.1049 134.513 36.08C134.327 36.0551 134.14 36.0427 133.953 36.0427H131.769V34.064H133.972C134.42 34.064 134.731 33.9769 134.905 33.8027C135.092 33.616 135.185 33.4044 135.185 33.168C135.185 32.9316 135.08 32.72 134.868 32.5333C134.669 32.3342 134.296 32.2347 133.748 32.2347C133.2 32.2347 132.684 32.2844 132.199 32.384C131.713 32.4836 131.321 32.5769 131.023 32.664L130.537 30.4987ZM143.998 38.0587C144.272 38.0587 144.533 38.0524 144.782 38.04C145.031 38.0276 145.23 38.0089 145.38 37.984V35.8747C145.268 35.8498 145.1 35.8249 144.876 35.8C144.652 35.7751 144.446 35.7627 144.26 35.7627C143.998 35.7627 143.749 35.7813 143.513 35.8187C143.289 35.8436 143.09 35.8996 142.916 35.9867C142.741 36.0738 142.604 36.192 142.505 36.3413C142.405 36.4907 142.356 36.6773 142.356 36.9013C142.356 37.3369 142.499 37.6418 142.785 37.816C143.084 37.9778 143.488 38.0587 143.998 38.0587ZM143.774 29.92C144.596 29.92 145.28 30.0133 145.828 30.2C146.375 30.3867 146.811 30.6542 147.134 31.0027C147.47 31.3511 147.707 31.7742 147.844 32.272C147.98 32.7698 148.049 33.3236 148.049 33.9333V39.72C147.651 39.8071 147.097 39.9067 146.388 40.0187C145.678 40.1431 144.82 40.2053 143.812 40.2053C143.177 40.2053 142.598 40.1493 142.076 40.0373C141.565 39.9253 141.124 39.7449 140.75 39.496C140.377 39.2347 140.091 38.8987 139.892 38.488C139.692 38.0773 139.593 37.5733 139.593 36.976C139.593 36.4036 139.705 35.9182 139.929 35.52C140.165 35.1218 140.476 34.8044 140.862 34.568C141.248 34.3316 141.69 34.1636 142.188 34.064C142.685 33.952 143.202 33.896 143.737 33.896C144.098 33.896 144.415 33.9147 144.689 33.952C144.975 33.9769 145.205 34.0142 145.38 34.064V33.8027C145.38 33.3298 145.236 32.9502 144.95 32.664C144.664 32.3778 144.166 32.2347 143.457 32.2347C142.984 32.2347 142.517 32.272 142.057 32.3467C141.596 32.4089 141.198 32.5022 140.862 32.6267L140.508 30.3867C140.669 30.3369 140.868 30.2871 141.105 30.2373C141.354 30.1751 141.621 30.1253 141.908 30.088C142.194 30.0382 142.492 30.0009 142.804 29.976C143.127 29.9387 143.451 29.92 143.774 29.92ZM154.633 36.5093C154.235 37.0942 153.88 37.6853 153.569 38.2827C153.258 38.8676 152.959 39.44 152.673 40H149.817C150.178 39.1911 150.545 38.4507 150.919 37.7787C151.292 37.1067 151.653 36.528 152.001 36.0427C151.479 35.7689 151.062 35.4204 150.751 34.9973C150.439 34.5618 150.284 34.0204 150.284 33.3733C150.284 32.2782 150.676 31.4382 151.46 30.8533C152.256 30.2684 153.351 29.976 154.745 29.976C155.056 29.976 155.399 29.9884 155.772 30.0133C156.158 30.0382 156.537 30.0756 156.911 30.1253C157.284 30.1751 157.639 30.2311 157.975 30.2933C158.323 30.3431 158.615 30.3991 158.852 30.4613V40H156.071V36.5093H154.633ZM156.071 32.1787C155.946 32.1662 155.753 32.1538 155.492 32.1413C155.231 32.1164 155.007 32.104 154.82 32.104C154.135 32.104 153.669 32.2222 153.42 32.4587C153.171 32.6827 153.047 32.9751 153.047 33.336C153.047 33.56 153.096 33.7529 153.196 33.9147C153.295 34.064 153.426 34.1884 153.588 34.288C153.75 34.3751 153.93 34.4373 154.129 34.4747C154.328 34.512 154.527 34.5307 154.727 34.5307H156.071V32.1787ZM164.246 37.9467C164.421 37.9716 164.651 37.9964 164.937 38.0213C165.236 38.0338 165.509 38.04 165.758 38.04C166.381 38.04 166.866 37.9653 167.214 37.816C167.563 37.6542 167.737 37.368 167.737 36.9573C167.737 36.5591 167.575 36.2853 167.252 36.136C166.941 35.9742 166.48 35.8933 165.87 35.8933H164.246V37.9467ZM165.814 34.0267C166.275 34.0267 166.648 33.9707 166.934 33.8587C167.221 33.7342 167.364 33.4729 167.364 33.0747C167.364 32.7013 167.202 32.4462 166.878 32.3093C166.555 32.1724 166.132 32.104 165.609 32.104C165.435 32.104 165.205 32.1164 164.918 32.1413C164.645 32.1538 164.421 32.1724 164.246 32.1973V34.0267H165.814ZM165.721 40.1867C165.373 40.1867 164.999 40.1742 164.601 40.1493C164.203 40.1244 163.811 40.0871 163.425 40.0373C163.039 40 162.672 39.9564 162.324 39.9067C161.988 39.8444 161.701 39.7884 161.465 39.7387V30.3307C161.701 30.2809 161.988 30.2373 162.324 30.2C162.672 30.1502 163.039 30.1067 163.425 30.0693C163.811 30.032 164.203 30.0071 164.601 29.9947C164.999 29.9698 165.373 29.9573 165.721 29.9573C166.53 29.9573 167.208 30.0382 167.756 30.2C168.316 30.3618 168.764 30.5733 169.1 30.8347C169.448 31.096 169.697 31.3884 169.846 31.712C169.996 32.0356 170.07 32.3591 170.07 32.6827C170.07 33.1182 169.965 33.5164 169.753 33.8773C169.541 34.2382 169.274 34.4996 168.95 34.6613C169.125 34.736 169.299 34.8418 169.473 34.9787C169.66 35.1156 169.828 35.2836 169.977 35.4827C170.126 35.6693 170.245 35.8996 170.332 36.1733C170.431 36.4347 170.481 36.7396 170.481 37.088C170.481 37.4862 170.4 37.872 170.238 38.2453C170.089 38.6187 169.828 38.9484 169.454 39.2347C169.081 39.5209 168.589 39.7511 167.98 39.9253C167.37 40.0996 166.617 40.1867 165.721 40.1867ZM175.403 33.616C175.676 33.3547 175.963 33.0684 176.261 32.7573C176.572 32.4462 176.871 32.1413 177.157 31.8427C177.443 31.5316 177.717 31.2329 177.979 30.9467C178.24 30.6604 178.47 30.4053 178.669 30.1813H182.048C181.799 30.4427 181.488 30.7662 181.115 31.152C180.754 31.5378 180.368 31.9422 179.957 32.3653C179.547 32.776 179.13 33.1867 178.707 33.5973C178.296 34.008 177.904 34.3751 177.531 34.6987C177.904 34.9849 178.302 35.3396 178.725 35.7627C179.148 36.1858 179.559 36.64 179.957 37.1253C180.368 37.6107 180.754 38.1022 181.115 38.6C181.488 39.0978 181.805 39.5644 182.067 40H178.893C178.669 39.664 178.414 39.3156 178.128 38.9547C177.842 38.5813 177.543 38.2204 177.232 37.872C176.921 37.5111 176.603 37.1751 176.28 36.864C175.969 36.5529 175.676 36.2853 175.403 36.0613V40H172.621V30.1813H175.403V33.616ZM192.732 30.1813C192.172 32.0729 191.587 33.8462 190.977 35.5013C190.367 37.1564 189.702 38.7618 188.98 40.3173C188.718 40.8773 188.457 41.3502 188.196 41.736C187.934 42.1342 187.648 42.4578 187.337 42.7067C187.026 42.968 186.671 43.1547 186.273 43.2667C185.887 43.3911 185.433 43.4533 184.91 43.4533C184.475 43.4533 184.07 43.4098 183.697 43.3227C183.336 43.248 183.038 43.1609 182.801 43.0613L183.286 40.84C183.573 40.9396 183.828 41.008 184.052 41.0453C184.276 41.0827 184.512 41.1013 184.761 41.1013C185.259 41.1013 185.638 40.9644 185.9 40.6907C186.174 40.4293 186.404 40.0622 186.59 39.5893C185.956 38.3449 185.321 36.9511 184.686 35.408C184.052 33.8524 183.454 32.1102 182.894 30.1813H185.844C185.968 30.6667 186.111 31.1956 186.273 31.768C186.447 32.328 186.628 32.9004 186.814 33.4853C187.001 34.0578 187.188 34.6178 187.374 35.1653C187.574 35.7129 187.76 36.2107 187.934 36.6587C188.096 36.2107 188.264 35.7129 188.438 35.1653C188.613 34.6178 188.781 34.0578 188.942 33.4853C189.117 32.9004 189.278 32.328 189.428 31.768C189.59 31.1956 189.733 30.6667 189.857 30.1813H192.732Z" fill="white"/>
</g>
<defs>
<filter id="filter0_d_2_260" x="10" y="5" width="225" height="67" filterUnits="userSpaceOnUse" color-interpolation-filters="sRGB">
<feFlood flood-opacity="0" result="BackgroundImageFix"/>
<feColorMatrix in="SourceAlpha" type="matrix" values="0 0 0 0 0 0 0 0 0 0 0 0 0 0 0 0 0 0 127 0" result="hardAlpha"/>
<feOffset dx="5" dy="4"/>
<feGaussianBlur stdDeviation="2.5"/>
<feComposite in2="hardAlpha" operator="out"/>
<feColorMatrix type="matrix" values="0 0 0 0 0 0 0 0 0 0 0 0 0 0 0 0 0 0 0.05 0"/>
<feBlend mode="normal" in2="BackgroundImageFix" result="effect1_dropShadow_2_260"/>
<feBlend mode="normal" in="SourceGraphic" in2="effect1_dropShadow_2_260" result="shape"/>
</filter>
<filter id="filter1_d_2_260" x="0" y="0" width="235" height="77" filterUnits="userSpaceOnUse" color-interpolation-filters="sRGB">
<feFlood flood-opacity="0" result="BackgroundImageFix"/>
<feColorMatrix in="SourceAlpha" type="matrix" values="0 0 0 0 0 0 0 0 0 0 0 0 0 0 0 0 0 0 127 0" result="hardAlpha"/>
<feOffset dy="4"/>
<feGaussianBlur stdDeviation="5"/>
<feComposite in2="hardAlpha" operator="out"/>
<feColorMatrix type="matrix" values="0 0 0 0 0 0 0 0 0 0 0 0 0 0 0 0 0 0 0.15 0"/>
<feBlend mode="normal" in2="BackgroundImageFix" result="effect1_dropShadow_2_260"/>
<feBlend mode="normal" in="SourceGraphic" in2="effect1_dropShadow_2_260" result="shape"/>
</filter>
<linearGradient id="paint0_linear_2_260" x1="118" y1="63" x2="118" y2="6" gradientUnits="userSpaceOnUse">
<stop stop-color="#B15CFD"/>
<stop offset="1" stop-color="#7355F2"/>
</linearGradient>
</defs>
</svg>
