<svg width="641" height="524" viewBox="0 0 641 524" fill="none" xmlns="http://www.w3.org/2000/svg">
<path d="M274.55 243.84H272.992V407.469H274.55V243.84Z" fill="#9EB9FF"/>
<path d="M165.558 243.84H163.999V407.469H165.558V243.84Z" fill="#9EB9FF"/>
<path d="M388.447 243.84H386.885V407.469H388.447V243.84Z" fill="#9EB9FF"/>
<path d="M499.34 243.84H497.781V407.469H499.34V243.84Z" fill="#9EB9FF"/>
<path d="M192.442 223.677H165.88V227.944H192.442V223.677Z" fill="#9EB9FF"/>
<path d="M203.557 231.562H165.88V235.828H203.557V231.562Z" fill="#9EB9FF"/>
<path d="M306.761 223.677H275.577V227.944H306.761V223.677Z" fill="#9EB9FF"/>
<path d="M295.517 231.562H275.577V235.828H295.517V231.562Z" fill="#9EB9FF"/>
<path d="M407.77 223.677H388.447V227.944H407.77V223.677Z" fill="#9EB9FF"/>
<path d="M410.968 231.562H388.447V235.828H410.968V231.562Z" fill="#9EB9FF"/>
<path d="M527.489 223.677H499.34V227.944H527.489V223.677Z" fill="#9EB9FF"/>
<path d="M521.864 231.562H499.34V235.828H521.864V231.562Z" fill="#9EB9FF"/>
<path d="M406.09 417.166H388.447V422.852H406.09V417.166Z" fill="#B8B8B8"/>
<path d="M516.983 417.166H499.34V422.852H516.983V417.166Z" fill="#B8B8B8"/>
<g opacity="0.43">
<path d="M571.023 358.853C536.435 358.856 506.367 343.901 475.023 328.312C436.327 309.068 396.311 289.17 342.998 294.62C308.954 298.1 287.585 311.965 268.733 324.195C251.661 335.269 235.523 345.011 213.666 345.843C178.34 347.187 166.088 332.119 165.882 331.2V321.532C165.927 321.698 173.64 338.609 213.63 338.409C233.325 338.31 247.86 328.878 264.689 317.959C284.248 305.269 306.415 290.886 342.245 287.223C397.698 281.556 438.694 301.941 478.337 321.656C519.82 342.283 559.405 361.629 609.458 344.845V352.795C595.185 357.582 583.775 358.853 571.023 358.853Z" fill="url(#paint0_linear_2_265)"/>
</g>
<path d="M363.406 357.002C337.875 357.004 317.625 339.832 297.8 323.025C282.769 310.282 267.174 297.252 249.173 290.824C194.234 271.208 166.127 307.027 165.876 307.34V296.446C166.172 296.074 171.188 289.564 185.692 283.348C198.897 277.689 221.055 273.175 251.616 283.804C270.979 290.539 287.058 304.173 302.61 317.355C334.155 344.101 361.399 367.197 408.713 331.02C444.547 303.618 478.329 277.503 511.567 267.965C544.075 258.634 577.967 265.465 609.692 297.19L609.458 307.084C542.068 239.399 484.689 282.28 413.23 336.923C394.299 351.397 377.989 356.999 363.406 357.002Z" fill="url(#paint1_linear_2_265)"/>
<path d="M417.681 204.752L416.557 203.43L435.237 187.517H446.582L472.322 165.587L488.421 179.303H500.293L506.295 184.414L524.936 168.532H534.399L573.631 135.108L574.758 136.43L535.039 170.268H525.576L506.295 186.694L499.653 181.038H487.781L472.322 167.867L447.219 189.253H435.874L417.681 204.752Z" fill="url(#paint2_linear_2_265)"/>
<path d="M420.381 182.769H413.925V181.033H419.662L429.356 171.339L436.404 178.39L453.241 161.549L458.421 166.729L475.495 149.657L485.724 159.887H497.388L515.392 141.885H530.919L542.396 130.408H556.447L570.387 116.464L571.613 117.693L557.165 132.144H543.115L531.637 143.621H516.11L498.106 161.623H485.005L475.495 152.112L458.421 169.183L453.241 164.007L436.404 180.844L429.356 173.793L420.381 182.769Z" fill="url(#paint3_linear_2_265)"/>
<path d="M592.791 186.717C592.779 186.68 592.771 186.643 592.76 186.607C576.156 128.703 534.718 79.2078 477.465 53.7417H477.459C467.652 49.3372 457.358 45.6879 446.675 42.8107C419.944 35.6164 393.01 33.9876 367.121 37.1917C367.101 37.1973 367.073 37.1973 367.053 37.203L367.017 37.1917C349.596 39.3728 332.64 43.7238 316.518 50.098C316.488 50.1093 316.456 50.1234 316.423 50.1347C257.211 73.4225 209.452 123.543 191.654 189.69C161.777 300.707 227.535 414.889 338.516 444.756C395.507 460.092 453.329 450.218 500.155 421.965L508.896 434.104L550.093 404.44L540.148 390.629C564.963 365.743 583.801 334.229 593.591 297.852C603.772 260.018 602.851 221.806 592.791 186.717ZM440.408 376.86C366.828 403.228 285.797 364.96 259.429 291.379C233.549 219.168 269.926 139.777 340.843 111.927C342.187 111.4 343.54 110.89 344.91 110.4C354.95 106.801 365.126 104.406 375.282 103.141C401.323 99.8946 427.234 104.068 450.37 114.402C484.355 129.582 512.34 158.069 525.889 195.878C526.954 198.854 527.918 201.841 528.774 204.839C549.103 275.925 511.013 351.554 440.408 376.86Z" fill="url(#paint4_linear_2_265)"/>
<path d="M633.781 174.918L592.757 186.607L528.775 204.842C527.915 201.844 526.952 198.859 525.889 195.881C512.34 158.072 484.355 129.585 450.37 114.405L477.459 53.739H477.465L480.314 47.3535L494.872 14.7466C563.879 45.4429 613.808 105.116 633.781 174.918Z" fill="#7459F8"/>
<path d="M480.314 47.3533L477.465 53.7389L450.37 114.404C427.235 104.071 401.326 99.8974 375.282 103.144L367.121 37.1889L366.268 30.2735C393.033 26.9511 420.874 28.6363 448.513 36.0729C459.546 39.0375 470.186 42.8079 480.314 47.3533Z" fill="#AA5BFC"/>
<path d="M375.281 103.144C365.125 104.409 354.95 106.804 344.909 110.403C343.54 110.893 342.187 111.403 340.843 111.93L316.518 50.0952L309.155 31.381C326.857 24.3699 345.478 19.5878 364.61 17.1953L364.652 17.2066L366.269 30.2736L367.123 37.1889L375.281 103.144Z" fill="#785DFF"/>
<path d="M640.969 517.114H558.935L501.93 437.942L528.664 418.69L555.951 399.046L569.539 417.921L640.969 517.114Z" fill="url(#paint5_linear_2_265)"/>
<mask id="mask0_2_265" style="mask-type:alpha" maskUnits="userSpaceOnUse" x="10" y="241" width="29" height="15">
<path d="M16.6595 255.007H38.1889L31.5976 241.337H10.0682L16.6595 255.007Z" fill="url(#paint6_linear_2_265)"/>
</mask>
<g mask="url(#mask0_2_265)">
</g>
<mask id="mask1_2_265" style="mask-type:alpha" maskUnits="userSpaceOnUse" x="0" y="241" width="12" height="15">
<path d="M6.59126 255.007H11.72L5.13155 241.337H0L6.59126 255.007Z" fill="url(#paint7_linear_2_265)"/>
</mask>
<g mask="url(#mask1_2_265)">
</g>
<mask id="mask2_2_265" style="mask-type:alpha" maskUnits="userSpaceOnUse" x="585" y="0" width="25" height="10">
<path d="M585.241 9.20635H609.115V0H585.241V9.20635Z" fill="url(#paint8_linear_2_265)"/>
</mask>
<g mask="url(#mask2_2_265)">
</g>
<path d="M338.914 440.258H424.584L397.582 523.177L400.109 524L428.241 437.604H336.984L309.12 523.177L311.645 524L338.914 440.258Z" fill="#BFBFBF"/>
<path d="M368.073 523.177L341.071 440.258H426.741L454.011 524L456.535 523.177L428.668 437.604H337.414L365.546 524L368.073 523.177Z" fill="#BFBFBF"/>
<path d="M435.799 463.712H330.942V466.367H435.799V463.712Z" fill="#BFBFBF"/>
<path d="M445.595 492.546H320.141V495.2H445.595V492.546Z" fill="#BFBFBF"/>
<path d="M381.842 251.011C381.842 251.011 383.978 247.274 380.591 237.256C377.317 227.568 365.977 228.447 362.373 234.653C358.769 240.858 359.986 244.713 365.292 251.721C370.596 258.729 379.639 254.215 381.842 251.011Z" fill="#EEA886"/>
<path d="M355.504 423.339C355.504 423.339 354.944 427.453 354.873 428.07C354.803 428.687 348.631 427.707 348.631 427.707L348.133 422.809C348.13 422.809 354.732 422.758 355.504 423.339Z" fill="#EEA886"/>
<path d="M354.939 427.549C354.939 427.549 356.894 430.026 358.785 431.108C360.676 432.187 363.649 432.616 364.768 433.734C365.577 434.54 367.707 438.018 359.853 437.947C352 437.877 348.212 438.438 347.37 437.105C346.527 435.772 348.587 427.27 348.587 427.27C348.587 427.27 350.509 427.811 354.939 427.549Z" fill="#152B3D"/>
<path d="M398.24 423.339C398.24 423.339 397.679 427.453 397.609 428.07C397.538 428.687 391.367 427.707 391.367 427.707L390.868 422.809C390.865 422.809 397.468 422.758 398.24 423.339Z" fill="#EEA886"/>
<path d="M397.67 427.549C397.67 427.549 399.626 430.026 401.517 431.108C403.408 432.187 410.368 433.075 411.487 434.194C412.296 435.002 413.637 438.252 402.585 437.947C394.731 437.73 390.944 438.438 390.101 437.105C389.259 435.772 391.318 427.27 391.318 427.27C391.318 427.27 393.759 427.704 397.67 427.549Z" fill="#152B3D"/>
<path d="M357.581 320.914C357.581 320.914 354.416 330.748 354.833 339.222C355.25 347.696 353.196 356.97 352.359 365.821C351.423 375.689 347.594 399.053 347.456 404.331C347.317 409.61 348.05 426.467 348.05 426.467L355.715 426.653C355.715 426.653 362.151 385.809 363.82 381.641C365.488 377.473 373.753 347.763 374.032 344.427C374.308 341.093 357.581 320.914 357.581 320.914Z" fill="#898EFE"/>
<path d="M389.36 319.891C389.36 319.891 394.013 345.889 394.568 351.077C395.123 356.265 395.495 376.177 395.771 379.418C396.05 382.658 397.623 421.837 399.105 426.653H390.558C390.558 426.653 381.783 398.171 381.783 384.696C381.783 371.22 375.972 355.4 372.221 346.509C368.471 337.619 359.884 337.407 357.579 320.911C357.582 320.914 386.238 314.658 389.36 319.891Z" fill="#898EFE"/>
<path d="M378.741 253.654C378.741 253.654 377.777 256.461 378.741 258.461C379.705 260.462 366.424 259.262 366.424 259.262C366.424 259.262 367.024 255.125 365.288 251.721C363.555 248.32 378.741 253.654 378.741 253.654Z" fill="#EEA886"/>
<path d="M356.963 323.055C356.963 323.055 361.739 327.961 389.784 322.292L389.355 319.891L357.473 321.091L356.963 323.055Z" fill="#5625E0"/>
<path d="M380.752 259.113C380.752 259.113 385.658 259.614 387.058 259.879C388.459 260.147 397.894 258.191 399.83 257.991C401.766 257.791 410.017 252.135 410.284 251.47C410.552 250.802 415.306 238.767 415.571 236.166C415.839 233.562 420.201 234.906 419.826 236.701C419.127 240.055 418.228 248.199 417.735 250.56C417.202 253.107 415.777 258.881 414.976 259.592C414.176 260.302 406.745 265.955 399.472 268.356C392.198 270.759 386.723 274.296 386.723 274.296H350.87C350.87 274.296 336.927 254.364 336.625 251.36C336.324 248.356 346.364 228.397 348.368 225.894C350.368 223.392 353.265 226.711 353.265 226.711C353.265 226.711 347.266 244.313 346.465 246.815C345.665 249.317 353.443 260.313 355.579 260.347C357.715 260.381 363.199 259.679 365.633 259.58C368.068 259.479 370.638 258.414 370.638 258.414L380.752 259.113Z" fill="#EEA886"/>
<path d="M396.2 272.427C396.2 272.427 391.812 275.344 391.412 280.351C391.012 285.356 389.411 293.263 388.608 295.966C387.808 298.668 389.31 318.287 389.51 319.69C389.71 321.091 361.77 324.422 357.478 321.091C357.478 321.091 356.277 302.774 355.776 297.566C355.274 292.362 352.873 279.748 352.073 278.046C351.273 276.344 341.562 262.725 341.162 260.93C341.162 260.93 346.183 252.921 349.788 252.823C349.788 252.823 355.511 259.529 357.376 259.831C359.242 260.132 370.68 258.036 370.683 258.019C370.683 258.019 371.931 259.718 378.568 257.717C378.568 257.717 386.472 258.608 387.757 258.774C389.315 258.974 400.136 257.416 400.136 257.416C400.136 257.416 404.479 264.748 403.718 268.451L396.2 272.427Z" fill="#5D5AFA"/>
<path d="M415.32 237.73C415.32 237.73 416.3 233.091 415.12 231.758C414.449 231 412.834 228.994 412.685 228.698C412.538 228.402 410.805 227.407 410.805 226.928C410.805 226.449 412.502 225.857 413.976 227.224C415.449 228.588 416.371 228.884 416.963 228.735C417.552 228.588 418.4 223.682 418.473 222.467C418.546 221.25 419.017 218.043 419.778 218.263C420.539 218.483 420.502 219.886 420.502 219.886C420.502 219.886 421.387 217.451 421.976 217.933C422.565 218.412 422.491 219.593 422.491 219.593C422.491 219.593 423.599 218.229 423.892 219.224C424.188 220.219 423.892 221.103 423.892 221.103C423.892 221.103 425.036 220.478 425.109 222.025C425.183 223.575 424.777 228.109 423.965 229.732C423.154 231.355 420.119 235.599 419.755 237.256C419.395 238.913 415.32 237.73 415.32 237.73Z" fill="#EEA886"/>
<path d="M352.29 229.583C352.29 229.583 355.627 223.975 356.759 223.476C357.895 222.975 359.496 222.693 360.896 221.69C362.297 220.689 364.148 219.855 364.05 219.52C363.951 219.187 362.297 219.32 360.53 220.086C358.76 220.853 357.985 220.483 357.819 220.083C357.653 219.683 358.763 216.857 359.296 216.189C359.828 215.521 363.632 211.694 362.998 211.128C362.364 210.561 359.896 212.664 359.496 213.098C359.496 213.098 361.465 208.961 360.696 208.761C359.93 208.561 358.495 210.029 358.495 210.029C358.495 210.029 358.662 206.492 354.857 212.232C354.857 212.232 355.658 210.33 354.491 210.964C353.324 211.598 352.189 215.169 351.822 216.969C351.456 218.77 349.791 224.51 348.37 225.897C346.95 227.28 352.29 229.583 352.29 229.583Z" fill="#EEA886"/>
<path d="M365.291 251.724C365.291 251.724 367.05 251.879 370.787 250.588C374.523 249.297 374.802 242.762 375.611 243.537C377.259 245.118 378.818 244.028 379.441 243.092C379.441 243.092 377.617 240.688 378.463 239.533C379.308 238.375 380.683 237.532 380.683 237.532C380.683 237.532 378.054 224.863 366.092 230.634C352.078 237.397 365.291 251.724 365.291 251.724Z" fill="#353A3D"/>
<path d="M378.743 258.461L378.321 256.63C378.321 256.63 370.687 256.475 366.519 257.078L366.079 259.267C366.082 259.27 371.417 261.688 378.743 258.461Z" fill="#5625E0"/>
<path d="M376.86 241.934C376.167 240.782 373.602 240.004 373.301 243.27C373.067 245.8 377.883 248.565 377.928 246.206C377.973 243.847 377.322 242.701 376.86 241.934Z" fill="#EEA886"/>
<path d="M415.501 236.676C415.501 236.676 418.257 236.743 419.593 237.95C419.593 237.95 419.681 238.716 419.371 239.319C419.371 239.319 416.984 238.206 415.152 237.997C415.152 238 415.18 236.997 415.501 236.676Z" fill="#E55353"/>
<path d="M418.75 237.363C419.003 237.966 418.722 238.659 418.119 238.916C417.516 239.169 416.822 238.888 416.566 238.285C416.312 237.682 416.594 236.988 417.197 236.732C417.8 236.478 418.493 236.76 418.75 237.363Z" fill="#353A3D"/>
<defs>
<linearGradient id="paint0_linear_2_265" x1="165.878" y1="322.559" x2="609.454" y2="322.559" gradientUnits="userSpaceOnUse">
<stop stop-color="#B8AAFD"/>
<stop offset="1" stop-color="#EDDBFF"/>
</linearGradient>
<linearGradient id="paint1_linear_2_265" x1="165.878" y1="310.556" x2="609.688" y2="310.556" gradientUnits="userSpaceOnUse">
<stop stop-color="#DADCFF"/>
<stop offset="0.930208" stop-color="#DEE3F3"/>
</linearGradient>
<linearGradient id="paint2_linear_2_265" x1="416.555" y1="169.93" x2="574.758" y2="169.93" gradientUnits="userSpaceOnUse">
<stop stop-color="#8FA8FF"/>
<stop offset="1" stop-color="#BFEBFE"/>
</linearGradient>
<linearGradient id="paint3_linear_2_265" x1="413.924" y1="149.618" x2="571.614" y2="149.618" gradientUnits="userSpaceOnUse">
<stop stop-color="#8FA8FF"/>
<stop offset="1" stop-color="#BFEBFE"/>
</linearGradient>
<linearGradient id="paint4_linear_2_265" x1="443.244" y1="99.5414" x2="354.079" y2="353.578" gradientUnits="userSpaceOnUse">
<stop stop-color="#E9EEFF"/>
<stop offset="1" stop-color="#D4DDFF"/>
</linearGradient>
<linearGradient id="paint5_linear_2_265" x1="488.419" y1="359.98" x2="650.137" y2="588.93" gradientUnits="userSpaceOnUse">
<stop stop-color="#D4DEFF"/>
<stop offset="1" stop-color="#E7EDFF"/>
</linearGradient>
<linearGradient id="paint6_linear_2_265" x1="22.745" y1="181.299" x2="25.1133" y2="295.767" gradientUnits="userSpaceOnUse">
<stop stop-color="white"/>
<stop offset="1"/>
</linearGradient>
<linearGradient id="paint7_linear_2_265" x1="4.48488" y1="181.677" x2="6.85325" y2="296.145" gradientUnits="userSpaceOnUse">
<stop stop-color="white"/>
<stop offset="1"/>
</linearGradient>
<linearGradient id="paint8_linear_2_265" x1="610.321" y1="-44.5635" x2="582.857" y2="58.1738" gradientUnits="userSpaceOnUse">
<stop stop-color="white"/>
<stop offset="1"/>
</linearGradient>
</defs>
</svg>
