<svg width="36" height="36" viewBox="0 0 36 36" fill="none" xmlns="http://www.w3.org/2000/svg">
<path fill-rule="evenodd" clip-rule="evenodd" d="M11.6911 1.56718C13.4156 1.4878 13.9654 1.47015 18.3582 1.47015C22.751 1.47015 23.3008 1.48927 25.0238 1.56718C26.7468 1.6451 27.923 1.92002 28.9521 2.31843C30.0297 2.72566 31.0073 3.36223 31.8159 4.18551C32.6392 4.99261 33.2743 5.96879 33.68 7.04787C34.0799 8.07697 34.3534 9.25309 34.4328 10.9732C34.5121 12.7006 34.5298 13.2504 34.5298 17.6417C34.5298 22.0345 34.5107 22.5843 34.4328 24.3088C34.3548 26.0289 34.0799 27.205 33.68 28.2341C33.2743 29.3133 32.6381 30.2911 31.8159 31.0994C31.0073 31.9227 30.0297 32.5578 28.9521 32.9635C27.923 33.3634 26.7468 33.6369 25.0268 33.7163C23.3008 33.7956 22.751 33.8133 18.3582 33.8133C13.9654 33.8133 13.4156 33.7942 11.6911 33.7163C9.97105 33.6383 8.79494 33.3634 7.76584 32.9635C6.68664 32.5577 5.70884 31.9216 4.90053 31.0994C4.07781 30.2918 3.44114 29.3145 3.03492 28.2356C2.63651 27.2065 2.36306 26.0304 2.28367 24.3103C2.20429 22.5829 2.18665 22.033 2.18665 17.6417C2.18665 13.2489 2.20576 12.6991 2.28367 10.9761C2.36159 9.25309 2.63651 8.07697 3.03492 7.04787C3.44174 5.96891 4.07889 4.99161 4.902 4.18404C5.70917 3.36149 6.68598 2.72484 7.76437 2.31843C8.79347 1.92002 9.96958 1.64657 11.6896 1.56718H11.6911ZM24.893 4.47807C23.1876 4.40015 22.676 4.38398 18.3582 4.38398C14.0404 4.38398 13.5288 4.40015 11.8234 4.47807C10.246 4.5501 9.39034 4.81326 8.81993 5.03525C8.06575 5.32928 7.5262 5.6777 6.9602 6.24371C6.42366 6.76568 6.01075 7.40112 5.75174 8.10344C5.52975 8.67385 5.26659 9.52947 5.19456 11.1069C5.11664 12.8123 5.10047 13.3239 5.10047 17.6417C5.10047 21.9595 5.11664 22.4711 5.19456 24.1765C5.26659 25.754 5.52975 26.6096 5.75174 27.18C6.01049 27.8813 6.4236 28.5178 6.9602 29.0397C7.4821 29.5763 8.11867 29.9894 8.81993 30.2482C9.39034 30.4702 10.246 30.7333 11.8234 30.8054C13.5288 30.8833 14.0389 30.8995 18.3582 30.8995C22.6775 30.8995 23.1876 30.8833 24.893 30.8054C26.4705 30.7333 27.3261 30.4702 27.8965 30.2482C28.6507 29.9542 29.1902 29.6057 29.7562 29.0397C30.2928 28.5178 30.7059 27.8813 30.9647 27.18C31.1867 26.6096 31.4498 25.754 31.5219 24.1765C31.5998 22.4711 31.616 21.9595 31.616 17.6417C31.616 13.3239 31.5998 12.8123 31.5219 11.1069C31.4498 9.52947 31.1867 8.67385 30.9647 8.10344C30.6707 7.34925 30.3222 6.80971 29.7562 6.24371C29.2342 5.70721 28.5988 5.2943 27.8965 5.03525C27.3261 4.81326 26.4705 4.5501 24.893 4.47807ZM16.2927 22.627C17.4462 23.1072 18.7307 23.172 19.9268 22.8103C21.1228 22.4487 22.1562 21.683 22.8504 20.6441C23.5446 19.6052 23.8566 18.3575 23.7331 17.1141C23.6096 15.8707 23.0583 14.7087 22.1732 13.8267C21.609 13.2629 20.9269 12.8311 20.1758 12.5626C19.4247 12.2941 18.6235 12.1954 17.8297 12.2737C17.0359 12.352 16.2694 12.6053 15.5852 13.0154C14.9011 13.4255 14.3164 13.9822 13.8733 14.6454C13.4301 15.3085 13.1395 16.0617 13.0224 16.8507C12.9052 17.6397 12.9645 18.4448 13.1959 19.2082C13.4272 19.9715 13.825 20.6741 14.3605 21.2652C14.896 21.8564 15.5559 22.3215 16.2927 22.627ZM12.4806 11.7641C13.2524 10.9922 14.1688 10.38 15.1773 9.96223C16.1857 9.5445 17.2666 9.3295 18.3582 9.3295C19.4498 9.3295 20.5307 9.5445 21.5392 9.96223C22.5476 10.38 23.464 10.9922 24.2358 11.7641C25.0077 12.536 25.62 13.4523 26.0377 14.4608C26.4554 15.4693 26.6704 16.5501 26.6704 17.6417C26.6704 18.7333 26.4554 19.8142 26.0377 20.8227C25.62 21.8312 25.0077 22.7475 24.2358 23.5194C22.677 25.0782 20.5628 25.9539 18.3582 25.9539C16.1537 25.9539 14.0394 25.0782 12.4806 23.5194C10.9217 21.9605 10.046 19.8463 10.046 17.6417C10.046 15.4372 10.9217 13.3229 12.4806 11.7641ZM28.514 10.5674C28.7052 10.387 28.8584 10.17 28.9643 9.92932C29.0702 9.68864 29.1267 9.42917 29.1306 9.16625C29.1344 8.90333 29.0854 8.64231 28.9866 8.39866C28.8877 8.155 28.741 7.93365 28.5551 7.74772C28.3691 7.56179 28.1478 7.41505 27.9041 7.3162C27.6605 7.21735 27.3995 7.16839 27.1365 7.17222C26.8736 7.17606 26.6141 7.2326 26.3735 7.33852C26.1328 7.44443 25.9158 7.59755 25.7354 7.78883C25.3845 8.16082 25.1924 8.65492 25.1998 9.16625C25.2073 9.67758 25.4137 10.1659 25.7753 10.5275C26.1369 10.8891 26.6252 11.0955 27.1365 11.103C27.6479 11.1104 28.142 10.9183 28.514 10.5674Z" fill="#272727"/>
</svg>
