<svg width="44" height="44" viewBox="0 0 44 44" fill="none" xmlns="http://www.w3.org/2000/svg">
<path d="M30.6515 36.212L29.4782 26.818C29.3119 25.4874 28.6652 24.2634 27.6598 23.3761C26.6544 22.4889 25.3594 21.9995 24.0185 22H19.9778C18.6375 22.0004 17.3435 22.4902 16.3388 23.3773C15.3341 24.2645 14.688 25.488 14.5218 26.818L13.3467 36.212C13.2822 36.7281 13.3282 37.252 13.4817 37.749C13.6353 38.2459 13.8928 38.7045 14.2371 39.0943C14.5815 39.4841 15.0048 39.7962 15.4791 40.0098C15.9533 40.2234 16.4675 40.3337 16.9877 40.3333H27.0123C27.5323 40.3334 28.0463 40.223 28.5203 40.0092C28.9943 39.7955 29.4175 39.4834 29.7616 39.0936C30.1058 38.7039 30.3631 38.2454 30.5165 37.7485C30.67 37.2517 30.716 36.728 30.6515 36.212V36.212Z" stroke="#2B52DB" stroke-width="2.66667" stroke-linecap="round" stroke-linejoin="round"/>
<path d="M22.0007 14.6666C25.0383 14.6666 27.5007 12.2042 27.5007 9.16663C27.5007 6.12906 25.0383 3.66663 22.0007 3.66663C18.9632 3.66663 16.5007 6.12906 16.5007 9.16663C16.5007 12.2042 18.9632 14.6666 22.0007 14.6666Z" stroke="#2B52DB" stroke-width="2.66667"/>
<path d="M7.33403 20.1666C9.35907 20.1666 11.0007 18.525 11.0007 16.4999C11.0007 14.4749 9.35907 12.8333 7.33403 12.8333C5.30898 12.8333 3.66736 14.4749 3.66736 16.4999C3.66736 18.525 5.30898 20.1666 7.33403 20.1666Z" stroke="#2B52DB" stroke-width="2.66667"/>
<path d="M36.6674 20.1666C38.6924 20.1666 40.3341 18.525 40.3341 16.4999C40.3341 14.4749 38.6924 12.8333 36.6674 12.8333C34.6424 12.8333 33.0007 14.4749 33.0007 16.4999C33.0007 18.525 34.6424 20.1666 36.6674 20.1666Z" stroke="#2B52DB" stroke-width="2.66667"/>
<path d="M36.6674 25.6666H37.2284C38.0964 25.6665 38.9363 25.9743 39.5986 26.5353C40.261 27.0962 40.7028 27.874 40.8456 28.7301L41.4561 32.3968C41.5437 32.9221 41.5158 33.4602 41.3744 33.9737C41.233 34.4872 40.9814 34.9637 40.6371 35.37C40.2928 35.7764 39.8642 36.1029 39.381 36.3268C38.8977 36.5507 38.3715 36.6667 37.8389 36.6666H31.1674M7.3341 25.6666H6.7731C5.90513 25.6665 5.06527 25.9743 4.40292 26.5353C3.74058 27.0962 3.29872 27.874 3.15593 28.7301L2.54543 32.3968C2.45782 32.9221 2.48571 33.4602 2.62714 33.9737C2.76858 34.4872 3.02018 34.9637 3.36443 35.37C3.70869 35.7764 4.13734 36.1029 4.62057 36.3268C5.1038 36.5507 5.63001 36.6667 6.1626 36.6666H12.8341L7.3341 25.6666Z" stroke="#2B52DB" stroke-width="2.66667" stroke-linecap="round" stroke-linejoin="round"/>
</svg>
