<svg width="36" height="37" viewBox="0 0 36 37" fill="none" xmlns="http://www.w3.org/2000/svg">
<path d="M24.8231 21.4346C24.4475 21.2417 22.5765 20.3251 22.2285 20.2011C21.8805 20.0701 21.6255 20.0081 21.374 20.394C21.119 20.7765 20.3954 21.6276 20.168 21.886C19.9475 22.141 19.7235 22.172 19.3479 21.9825C17.1151 20.8661 15.6508 19.9909 14.1795 17.4652C13.7901 16.7933 14.5688 16.8416 15.2958 15.391C15.4199 15.136 15.3579 14.9189 15.2614 14.7259C15.1649 14.533 14.4069 12.6654 14.0899 11.904C13.7832 11.1631 13.4662 11.2665 13.2354 11.2527C13.0148 11.239 12.7633 11.239 12.5083 11.239C12.2533 11.239 11.8433 11.3354 11.4953 11.711C11.1473 12.0935 10.1653 13.0135 10.1653 14.881C10.1653 16.7485 11.5263 18.5575 11.7124 18.8125C11.9053 19.0675 14.3896 22.899 18.204 24.5495C20.6159 25.5901 21.56 25.6797 22.766 25.5005C23.4999 25.3902 25.0126 24.5839 25.3261 23.6915C25.6397 22.8025 25.6397 22.0411 25.5466 21.8826C25.4536 21.7137 25.1986 21.6172 24.8231 21.4346Z" fill="#272727"/>
<path d="M32.1188 12.4242C31.3401 10.5739 30.2237 8.9131 28.8007 7.4866C27.3776 6.06355 25.7168 4.94372 23.863 4.16845C21.9679 3.3725 19.9557 2.96936 17.8814 2.96936H17.8125C15.7244 2.9797 13.7018 3.39317 11.7998 4.20635C9.9633 4.99195 8.31628 6.10834 6.90701 7.5314C5.49774 8.95445 4.39169 10.6084 3.62675 12.4518C2.83426 14.3607 2.43456 16.3902 2.4449 18.4782C2.45523 20.8695 3.02721 23.2435 4.09881 25.3661V30.6034C4.09881 31.4786 4.80861 32.1884 5.68381 32.1884H10.9246C13.0472 33.26 15.4212 33.832 17.8125 33.8424H17.8848C19.9488 33.8424 21.9507 33.4427 23.8355 32.6605C25.6789 31.8921 27.3363 30.7895 28.7559 29.3802C30.1789 27.971 31.2987 26.324 32.0809 24.4874C32.8941 22.5854 33.3076 20.5628 33.3179 18.4748C33.3282 16.3764 32.9217 14.34 32.1188 12.4242ZM26.9124 27.5161C24.497 29.9074 21.2926 31.2237 17.8814 31.2237H17.8228C15.7451 31.2133 13.6812 30.6965 11.8584 29.7248L11.569 29.5698H6.7175V24.7183L6.56245 24.4288C5.59077 22.6061 5.07393 20.5422 5.06359 18.4644C5.04981 15.0291 6.3626 11.804 8.77111 9.37482C11.1762 6.94564 14.391 5.60183 17.8263 5.58805H17.8848C19.6077 5.58805 21.2788 5.92228 22.8535 6.58384C24.3902 7.22818 25.7685 8.15506 26.9538 9.34036C28.1356 10.5222 29.066 11.9039 29.7103 13.4407C30.3788 15.0326 30.713 16.7209 30.7061 18.4644C30.6854 21.8963 29.3382 25.1111 26.9124 27.5161Z" fill="#272727"/>
</svg>
